<svg width="48" height="48" viewBox="0 0 49 49" fill="none" xmlns="http://www.w3.org/2000/svg">
  <path d="M34.73 20.15 38.8 8.13H21.55l4.06 11.99c.18.04.36.08.54.15l4.03-8.17 4.03 8.21c.17-.06.34-.11.52-.16Zm.97 6.58c1.39 0 2.53-1.13 2.53-2.53a2.54 2.54 0 0 0-2.53-2.53c-1.4 0-2.53 1.14-2.53 2.53 0 1.4 1.13 2.53 2.53 2.53Zm-10.91-5.06c1.4 0 2.53 1.14 2.53 2.53 0 1.4-1.13 2.53-2.53 2.53-1.39 0-2.53-1.13-2.53-2.53a2.54 2.54 0 0 1 2.53-2.53Zm-8.41 2.56c0-1.4-1.14-2.53-2.53-2.53-1.4 0-2.53 1.13-2.53 2.53 0 1.39 1.13 2.53 2.53 2.53a2.54 2.54 0 0 0 2.53-2.53Z" fill="#C63D14"/>
  <path d="M23.22 38.27c.73-.36 1.47-.73 2.22-1.08-.23-.74-.36-1.54-.36-2.36 0-4.22 3.26-7.68 7.4-7.98-.58-.71-.93-1.61-.95-2.59l-2.57-.03a4.18 4.18 0 0 1-4.17 4.14c-.21 0-.41-.02-.62-.05a15.72 15.72 0 0 1-2.46 2.98c-1.49 1.4-3.16 2.44-4.98 3.09l-.33.11-.32-.16c-2.3-1.18-3.39-3.68-2.7-5.98-.37-.04-.73-.13-1.07-.27-.12.24-.23.48-.35.72-.68 1.41-1.39 2.86-1.65 4.44-.28 1.7-.4 4.81 2.03 6.49 3.31 2.29 6.81.55 10.88-1.47Z" fill="#C63D14"/>
  <path d="M39.65 34.54h-.85v-2.29c0-.63-.52-1.14-1.15-1.14h-2.28v-.86c0-.37-.15-.74-.42-1.01-.27-.26-.63-.41-1.01-.41s-.74.15-1.01.41c-.27.27-.42.64-.42 1.01v.86h-2.29c-.3 0-.59.12-.8.34-.22.21-.34.5-.34.8v2.18h.86c.86 0 1.54.68 1.54 1.54s-.68 1.54-1.54 1.54h-.86v2.17c0 .31.12.6.34.81.21.22.5.34.8.34h2.18v-.86c0-.86.68-1.54 1.54-1.54s1.54.68 1.54 1.54v.86h2.17c.31 0 .6-.12.81-.34.22-.21.34-.5.34-.81V37.4h.85c.38 0 .74-.15 1.01-.42a1.423 1.423 0 0 0 0-2.02c-.27-.27-.63-.42-1.01-.42Z" fill="#7EB77F"/>
</svg>
